999
FreeCAD v1.1 20260928 (Git shallow)
  0
SECTION
  2
HEADER
  9
$ACADVER
  1
AC1014
  9
$ACADMAINTVER
 70
     9
  9
$DWGCODEPAGE
  3
ANSI_1252
  9
$TEXTSTYLE
  7
STANDARD
  9
$DIMSTYLE
  2
STANDARD
  9
$DIMTXSTY
  7
STANDARD
  9
$CMLSTYLE
  2
STANDARD
  9
$LUNITS
 70
2
  9
$INSUNITS
 70
4
  9
$PEXTMAX
 10
50
 20
50
 30
50
  9
$PEXTMIN
 10
0
 20
0
 30
0
  9
$HANDSEED
  5
FFFF
  0
ENDSEC
  0
SECTION
  2
CLASSES
  0
CLASS
  1
ACDBDICTIONARYWDFLT
  2
AcDbDictionaryWithDefault
  3
ObjectDBX Classes
 90
        0
280
     0
281
     0
  0
CLASS
  1
XRECORD
  2
AcDbXrecord
  3
ObjectDBX Classes
 90
        0
280
     0
281
     0
  0
CLASS
  1
LWPOLYLINE
  2
AcDbPolyline
  3
ObjectDBX Classes
 90
        0
280
     0
281
     1
  0
ENDSEC
  0
SECTION
  2
TABLES
  0
TABLE
  2
VPORT
  5
20
330
0
100
AcDbSymbolTable
 70
     1
  0
VPORT
  5
21
330
20
100
AcDbSymbolTableRecord
100
AcDbViewportTableRecord
  2
*ACTIVE
 70
     0
  0
ENDTAB
  0
TABLE
  2
LTYPE
  5
22
330
0
100
AcDbSymbolTable
 70
     1
  0
LTYPE
  5
23
330
21
100
AcDbSymbolTableRecord
100
AcDbLinetypeTableRecord
  2
BYBLOCK
 70
     0
  3

 72
    65
 73
     0
 40
0.0
  0
LTYPE
  5
24
330
21
100
AcDbSymbolTableRecord
100
AcDbLinetypeTableRecord
  2
BYLAYER
 70
     0
  3

 72
    65
 73
     0
 40
0.0
  0
LTYPE
  5
25
330
21
100
AcDbSymbolTableRecord
100
AcDbLinetypeTableRecord
  2
CONTINUOUS
 70
     0
  3
Solid line
 72
    65
 73
     0
 40
0.0
  0
ENDTAB
  0
TABLE
  2
LAYER
  5
A1D
330
0
100
AcDbSymbolTable
 70
3
  0
LAYER
  5
A1E
330
A1D
100
AcDbSymbolTableRecord
100
AcDbLayerTableRecord
  2
0
 70
   0
 62
   7
  6
CONTINUOUS
  0
LAYER
  5
A1F
330
A1D
100
AcDbSymbolTableRecord
100
AcDbLayerTableRecord
  2
none
 70
    0
 62
    7
  6
CONTINUOUS
  0
LAYER
  5
A20
330
A1D
100
AcDbSymbolTableRecord
100
AcDbLayerTableRecord
  2
DXF_zijplaat
 70
    0
 62
    7
  6
CONTINUOUS
  0
ENDTAB
  0
TABLE
  2
STYLE
  5
70
330
0
100
AcDbSymbolTable
 70
     2
  0
STYLE
  5
71
330
70
100
AcDbSymbolTableRecord
100
AcDbTextStyleTableRecord
  2
STANDARD
 70
     0
 40
0.0
 41
1.0
 50
0.0
 71
     0
 42
2.5
  3
arial.ttf
  4

  0
STYLE
  5
72
330
70
100
AcDbSymbolTableRecord
100
AcDbTextStyleTableRecord
  2
ANNOTATIVE
 70
     0
 40
0.0
 41
1.0
 50
0.0
 71
     0
 42
2.5
  3
arial.ttf
  4

  0
ENDTAB
  0
TABLE
  2
VIEW
  5
73
330
0
100
AcDbSymbolTable
 70
     0
  0
ENDTAB
  0
TABLE
  2
UCS
  5
74
330
0
100
AcDbSymbolTable
 70
     0
  0
ENDTAB
  0
TABLE
  2
APPID
  5
75
330
0
100
AcDbSymbolTable
 70
     2
  0
APPID
  5
76
330
75
100
AcDbSymbolTableRecord
100
AcDbRegAppTableRecord
  2
ACAD
 70
     0
  0
APPID
  5
77
330
75
100
AcDbSymbolTableRecord
100
AcDbRegAppTableRecord
  2
ACADANNOTATIVE
 70
     0
  0
ENDTAB
  0
TABLE
  2
DIMSTYLE
  5
78
330
0
100
AcDbSymbolTable
 70
     2
  0
DIMSTYLE
105
79
330
78
100
AcDbSymbolTableRecord
100
AcDbDimStyleTableRecord
  2
STANDARD
 70
     0
  3

  4

  5

  6

  7

 40
0.0
 41
2.5
 42
0.625
 43
3.75
 44
1.25
 45
0.0
 46
0.0
 47
0.0
 48
0.0
140
2.5
141
2.5
142
0.0
143
0.03937007874016
144
1.0
145
0.0
146
1.0
147
0.625
 71
     0
 72
     0
 73
     0
 74
     0
 75
     0
 76
     0
 77
     1
 78
     8
170
     0
171
     3
172
     1
173
     0
174
     0
175
     0
176
     0
177
     0
178
     0
270
     2
271
     2
272
     2
273
     2
274
     3
340
71
275
     0
280
     0
281
     0
282
     0
283
     0
284
     8
285
     0
286
     0
287
     3
288
     0
  0
ENDTAB
  0
TABLE
  2
BLOCK_RECORD
  5
A01
330
0
100
AcDbSymbolTable
  70
5
  0
BLOCK_RECORD
  5
A02
330
A01
100
AcDbSymbolTableRecord
100
AcDbBlockTableRecord
  2
*MODEL_SPACE
  0
BLOCK_RECORD
  5
A03
330
A01
100
AcDbSymbolTableRecord
100
AcDbBlockTableRecord
  2
*PAPER_SPACE
  0
ENDTAB
  0
ENDSEC
  0
SECTION
  2
BLOCKS
  0
BLOCK
  5
A04
330
A02
100
AcDbEntity
  8
0
100
AcDbBlockBegin
  2
*MODEL_SPACE
 70
   0
 10
0
 20
0
 30
0
  3
*MODEL_SPACE
  1
 
  0
ENDBLK
  5
A05
330
A02
100
AcDbEntity
  8
0
100
AcDbBlockEnd
  0
BLOCK
  5
A06
330
A03
100
AcDbEntity
 67
1
  8
0
100
AcDbBlockBegin
  2
*PAPER_SPACE
 70
   0
 10
0
 20
0
 30
0
  3
*PAPER_SPACE
  1
 
  0
ENDBLK
  5
A07
330
A03
100
AcDbEntity
 67
    1
  8
0
100
AcDbBlockEnd
  0
ENDSEC
  0
SECTION
  2
ENTITIES
  0
LWPOLYLINE
  5
A08
330
A02
100
AcDbEntity
100
AcDbPolyline
  8
DXF_zijplaat
 90
77
 70
0
 43
0
 10
-265.000000000
 20
390.000000000
 10
-265.000000000
 20
385.000000000
 10
-265.000000000
 20
380.000000000
 10
-265.000000000
 20
375.000000000
 10
-265.000000000
 20
370.000000000
 10
-265.000000000
 20
365.000000000
 10
-265.000000000
 20
360.000000000
 10
-265.000000000
 20
355.000000000
 10
-265.000000000
 20
350.000000000
 10
-265.000000000
 20
345.000000000
 10
-265.000000000
 20
340.000000000
 10
-265.000000000
 20
335.000000000
 10
-265.000000000
 20
330.000000000
 10
-265.000000000
 20
325.000000000
 10
-265.000000000
 20
320.000000000
 10
-265.000000000
 20
315.000000000
 10
-265.000000000
 20
310.000000000
 10
-265.000000000
 20
305.000000000
 10
-265.000000000
 20
300.000000000
 10
-265.000000000
 20
295.000000000
 10
-265.000000000
 20
290.000000000
 10
-265.000000000
 20
285.000000000
 10
-265.000000000
 20
280.000000000
 10
-265.000000000
 20
275.000000000
 10
-265.000000000
 20
270.000000000
 10
-265.000000000
 20
265.000000000
 10
-265.000000000
 20
260.000000000
 10
-265.000000000
 20
255.000000000
 10
-265.000000000
 20
250.000000000
 10
-265.000000000
 20
245.000000000
 10
-265.000000000
 20
240.000000000
 10
-265.000000000
 20
235.000000000
 10
-265.000000000
 20
230.000000000
 10
-265.000000000
 20
225.000000000
 10
-265.000000000
 20
220.000000000
 10
-265.000000000
 20
215.000000000
 10
-265.000000000
 20
210.000000000
 10
-265.000000000
 20
205.000000000
 10
-265.000000000
 20
200.000000000
 10
-265.000000000
 20
195.000000000
 10
-265.000000000
 20
190.000000000
 10
-265.000000000
 20
185.000000000
 10
-265.000000000
 20
180.000000000
 10
-265.000000000
 20
175.000000000
 10
-265.000000000
 20
170.000000000
 10
-265.000000000
 20
165.000000000
 10
-265.000000000
 20
160.000000000
 10
-265.000000000
 20
155.000000000
 10
-265.000000000
 20
150.000000000
 10
-265.000000000
 20
145.000000000
 10
-265.000000000
 20
140.000000000
 10
-265.000000000
 20
135.000000000
 10
-265.000000000
 20
130.000000000
 10
-265.000000000
 20
125.000000000
 10
-265.000000000
 20
120.000000000
 10
-265.000000000
 20
115.000000000
 10
-265.000000000
 20
110.000000000
 10
-265.000000000
 20
105.000000000
 10
-265.000000000
 20
100.000000000
 10
-265.000000000
 20
95.000000000
 10
-265.000000000
 20
90.000000000
 10
-265.000000000
 20
85.000000000
 10
-265.000000000
 20
80.000000000
 10
-265.000000000
 20
75.000000000
 10
-265.000000000
 20
70.000000000
 10
-265.000000000
 20
65.000000000
 10
-265.000000000
 20
60.000000000
 10
-265.000000000
 20
55.000000000
 10
-265.000000000
 20
50.000000000
 10
-265.000000000
 20
45.000000000
 10
-265.000000000
 20
40.000000000
 10
-265.000000000
 20
35.000000000
 10
-265.000000000
 20
30.000000000
 10
-265.000000000
 20
25.000000000
 10
-265.000000000
 20
20.000000000
 10
-265.000000000
 20
15.000000000
 10
-265.000000000
 20
10.000000000
  0
LWPOLYLINE
  5
A09
330
A02
100
AcDbEntity
100
AcDbPolyline
  8
DXF_zijplaat
 90
32
 70
0
 43
0
 10
-265.000000000
 20
10.000000000
 10
-260.000000000
 20
10.000000000
 10
-255.000000000
 20
10.000000000
 10
-250.000000000
 20
10.000000000
 10
-245.000000000
 20
10.000000000
 10
-240.000000000
 20
10.000000000
 10
-235.000000000
 20
10.000000000
 10
-230.000000000
 20
10.000000000
 10
-225.000000000
 20
10.000000000
 10
-220.000000000
 20
10.000000000
 10
-215.000000000
 20
10.000000000
 10
-210.000000000
 20
10.000000000
 10
-205.000000000
 20
10.000000000
 10
-200.000000000
 20
10.000000000
 10
-195.000000000
 20
10.000000000
 10
-190.000000000
 20
10.000000000
 10
-185.000000000
 20
10.000000000
 10
-180.000000000
 20
10.000000000
 10
-175.000000000
 20
10.000000000
 10
-170.000000000
 20
10.000000000
 10
-165.000000000
 20
10.000000000
 10
-160.000000000
 20
10.000000000
 10
-155.000000000
 20
10.000000000
 10
-150.000000000
 20
10.000000000
 10
-145.000000000
 20
10.000000000
 10
-140.000000000
 20
10.000000000
 10
-135.000000000
 20
10.000000000
 10
-130.000000000
 20
10.000000000
 10
-125.000000000
 20
10.000000000
 10
-120.000000000
 20
10.000000000
 10
-115.000000000
 20
10.000000000
 10
-110.000000000
 20
10.000000000
  0
LWPOLYLINE
  5
A0A
330
A02
100
AcDbEntity
100
AcDbPolyline
  8
DXF_zijplaat
 90
22
 70
0
 43
0
 10
-110.000000000
 20
10.000000000
 10
-107.571785344
 20
14.370786381
 10
-105.143570688
 20
18.741572761
 10
-102.715356032
 20
23.112359142
 10
-100.287141376
 20
27.483145522
 10
-97.858926721
 20
31.853931903
 10
-95.430712065
 20
36.224718284
 10
-93.002497409
 20
40.595504664
 10
-90.574282753
 20
44.966291045
 10
-88.146068097
 20
49.337077425
 10
-85.717853441
 20
53.707863806
 10
-83.289638785
 20
58.078650187
 10
-80.861424129
 20
62.449436567
 10
-78.433209473
 20
66.820222948
 10
-76.004994817
 20
71.191009329
 10
-73.576780162
 20
75.561795709
 10
-71.148565506
 20
79.932582090
 10
-68.720350850
 20
84.303368470
 10
-66.292136194
 20
88.674154851
 10
-63.863921538
 20
93.044941232
 10
-61.435706882
 20
97.415727612
 10
-60.000000000
 20
100.000000000
  0
LWPOLYLINE
  5
A0B
330
A02
100
AcDbEntity
100
AcDbPolyline
  8
DXF_zijplaat
 90
27
 70
0
 43
0
 10
-60.000000000
 20
100.000000000
 10
-55.000000000
 20
100.000000000
 10
-50.000000000
 20
100.000000000
 10
-45.000000000
 20
100.000000000
 10
-40.000000000
 20
100.000000000
 10
-35.000000000
 20
100.000000000
 10
-30.000000000
 20
100.000000000
 10
-25.000000000
 20
100.000000000
 10
-20.000000000
 20
100.000000000
 10
-15.000000000
 20
100.000000000
 10
-10.000000000
 20
100.000000000
 10
-5.000000000
 20
100.000000000
 10
0.000000000
 20
100.000000000
 10
5.000000000
 20
100.000000000
 10
10.000000000
 20
100.000000000
 10
15.000000000
 20
100.000000000
 10
20.000000000
 20
100.000000000
 10
25.000000000
 20
100.000000000
 10
30.000000000
 20
100.000000000
 10
35.000000000
 20
100.000000000
 10
40.000000000
 20
100.000000000
 10
45.000000000
 20
100.000000000
 10
50.000000000
 20
100.000000000
 10
55.000000000
 20
100.000000000
 10
60.000000000
 20
100.000000000
 10
65.000000000
 20
100.000000000
 10
70.000000000
 20
100.000000000
  0
LWPOLYLINE
  5
A0C
330
A02
100
AcDbEntity
100
AcDbPolyline
  8
DXF_zijplaat
 90
40
 70
0
 43
0
 10
70.000000000
 20
100.000000000
 10
73.535533906
 20
103.535533906
 10
77.071067812
 20
107.071067812
 10
80.606601718
 20
110.606601718
 10
84.142135624
 20
114.142135624
 10
87.677669530
 20
117.677669530
 10
91.213203436
 20
121.213203436
 10
94.748737342
 20
124.748737342
 10
98.284271247
 20
128.284271247
 10
101.819805153
 20
131.819805153
 10
105.355339059
 20
135.355339059
 10
108.890872965
 20
138.890872965
 10
112.426406871
 20
142.426406871
 10
115.961940777
 20
145.961940777
 10
119.497474683
 20
149.497474683
 10
123.033008589
 20
153.033008589
 10
126.568542495
 20
156.568542495
 10
130.104076401
 20
160.104076401
 10
133.639610307
 20
163.639610307
 10
137.175144213
 20
167.175144213
 10
140.710678119
 20
170.710678119
 10
144.246212025
 20
174.246212025
 10
147.781745931
 20
177.781745931
 10
151.317279836
 20
181.317279836
 10
154.852813742
 20
184.852813742
 10
158.388347648
 20
188.388347648
 10
161.923881554
 20
191.923881554
 10
165.459415460
 20
195.459415460
 10
168.994949366
 20
198.994949366
 10
172.530483272
 20
202.530483272
 10
176.066017178
 20
206.066017178
 10
179.601551084
 20
209.601551084
 10
183.137084990
 20
213.137084990
 10
186.672618896
 20
216.672618896
 10
190.208152802
 20
220.208152802
 10
193.743686708
 20
223.743686708
 10
197.279220614
 20
227.279220614
 10
200.814754520
 20
230.814754520
 10
204.350288425
 20
234.350288425
 10
205.000000000
 20
235.000000000
  0
LWPOLYLINE
  5
A0D
330
A02
100
AcDbEntity
100
AcDbPolyline
  8
DXF_zijplaat
 90
6
 70
0
 43
0
 10
205.000000000
 20
235.000000000
 10
205.000000000
 20
240.000000000
 10
205.000000000
 20
245.000000000
 10
205.000000000
 20
250.000000000
 10
205.000000000
 20
255.000000000
 10
205.000000000
 20
260.000000000
  0
LWPOLYLINE
  5
A0E
330
A02
100
AcDbEntity
100
AcDbPolyline
  8
DXF_zijplaat
 90
32
 70
0
 43
0
 10
205.000000000
 20
260.000000000
 10
202.263753185
 20
264.184848070
 10
199.527506370
 20
268.369696140
 10
196.791259555
 20
272.554544210
 10
194.055012740
 20
276.739392279
 10
191.318765925
 20
280.924240349
 10
188.582519111
 20
285.109088419
 10
185.846272296
 20
289.293936489
 10
183.110025481
 20
293.478784559
 10
180.373778666
 20
297.663632629
 10
177.637531851
 20
301.848480699
 10
174.901285036
 20
306.033328769
 10
172.165038221
 20
310.218176838
 10
169.428791406
 20
314.403024908
 10
166.692544591
 20
318.587872978
 10
163.956297776
 20
322.772721048
 10
161.220050961
 20
326.957569118
 10
158.483804146
 20
331.142417188
 10
155.747557332
 20
335.327265258
 10
153.011310517
 20
339.512113327
 10
150.275063702
 20
343.696961397
 10
147.538816887
 20
347.881809467
 10
144.802570072
 20
352.066657537
 10
142.066323257
 20
356.251505607
 10
139.330076442
 20
360.436353677
 10
136.593829627
 20
364.621201747
 10
133.857582812
 20
368.806049817
 10
131.121335997
 20
372.990897886
 10
128.385089182
 20
377.175745956
 10
125.648842368
 20
381.360594026
 10
122.912595553
 20
385.545442096
 10
120.000000000
 20
390.000000000
  0
LWPOLYLINE
  5
A0F
330
A02
100
AcDbEntity
100
AcDbPolyline
  8
DXF_zijplaat
 90
78
 70
0
 43
0
 10
120.000000000
 20
390.000000000
 10
115.000000000
 20
390.000000000
 10
110.000000000
 20
390.000000000
 10
105.000000000
 20
390.000000000
 10
100.000000000
 20
390.000000000
 10
95.000000000
 20
390.000000000
 10
90.000000000
 20
390.000000000
 10
85.000000000
 20
390.000000000
 10
80.000000000
 20
390.000000000
 10
75.000000000
 20
390.000000000
 10
70.000000000
 20
390.000000000
 10
65.000000000
 20
390.000000000
 10
60.000000000
 20
390.000000000
 10
55.000000000
 20
390.000000000
 10
50.000000000
 20
390.000000000
 10
45.000000000
 20
390.000000000
 10
40.000000000
 20
390.000000000
 10
35.000000000
 20
390.000000000
 10
30.000000000
 20
390.000000000
 10
25.000000000
 20
390.000000000
 10
20.000000000
 20
390.000000000
 10
15.000000000
 20
390.000000000
 10
10.000000000
 20
390.000000000
 10
5.000000000
 20
390.000000000
 10
0.000000000
 20
390.000000000
 10
-5.000000000
 20
390.000000000
 10
-10.000000000
 20
390.000000000
 10
-15.000000000
 20
390.000000000
 10
-20.000000000
 20
390.000000000
 10
-25.000000000
 20
390.000000000
 10
-30.000000000
 20
390.000000000
 10
-35.000000000
 20
390.000000000
 10
-40.000000000
 20
390.000000000
 10
-45.000000000
 20
390.000000000
 10
-50.000000000
 20
390.000000000
 10
-55.000000000
 20
390.000000000
 10
-60.000000000
 20
390.000000000
 10
-65.000000000
 20
390.000000000
 10
-70.000000000
 20
390.000000000
 10
-75.000000000
 20
390.000000000
 10
-80.000000000
 20
390.000000000
 10
-85.000000000
 20
390.000000000
 10
-90.000000000
 20
390.000000000
 10
-95.000000000
 20
390.000000000
 10
-100.000000000
 20
390.000000000
 10
-105.000000000
 20
390.000000000
 10
-110.000000000
 20
390.000000000
 10
-115.000000000
 20
390.000000000
 10
-120.000000000
 20
390.000000000
 10
-125.000000000
 20
390.000000000
 10
-130.000000000
 20
390.000000000
 10
-135.000000000
 20
390.000000000
 10
-140.000000000
 20
390.000000000
 10
-145.000000000
 20
390.000000000
 10
-150.000000000
 20
390.000000000
 10
-155.000000000
 20
390.000000000
 10
-160.000000000
 20
390.000000000
 10
-165.000000000
 20
390.000000000
 10
-170.000000000
 20
390.000000000
 10
-175.000000000
 20
390.000000000
 10
-180.000000000
 20
390.000000000
 10
-185.000000000
 20
390.000000000
 10
-190.000000000
 20
390.000000000
 10
-195.000000000
 20
390.000000000
 10
-200.000000000
 20
390.000000000
 10
-205.000000000
 20
390.000000000
 10
-210.000000000
 20
390.000000000
 10
-215.000000000
 20
390.000000000
 10
-220.000000000
 20
390.000000000
 10
-225.000000000
 20
390.000000000
 10
-230.000000000
 20
390.000000000
 10
-235.000000000
 20
390.000000000
 10
-240.000000000
 20
390.000000000
 10
-245.000000000
 20
390.000000000
 10
-250.000000000
 20
390.000000000
 10
-255.000000000
 20
390.000000000
 10
-260.000000000
 20
390.000000000
 10
-265.000000000
 20
390.000000000
  0
LWPOLYLINE
  5
A10
330
A02
100
AcDbEntity
100
AcDbPolyline
  8
DXF_zijplaat
 90
9
 70
1
 43
0
 10
58.500000000
 20
191.600000000
 10
53.964729188
 20
189.794926346
 10
51.910215302
 20
185.367066261
 10
53.460261036
 20
180.738423862
 10
57.767003748
 20
178.440829588
 10
62.474689558
 20
179.731049164
 10
65.008251912
 20
183.903342782
 10
63.981852429
 20
188.675499143
 10
59.956923432
 20
191.437186817
  0
LWPOLYLINE
  5
A11
330
A02
100
AcDbEntity
100
AcDbPolyline
  8
DXF_zijplaat
 90
28
 70
1
 43
0
 10
0.000000000
 20
207.000000000
 10
-4.957066954
 20
206.434259661
 10
-9.659187295
 20
204.766135201
 10
-13.864526555
 20
202.081419830
 10
-17.356800183
 20
198.518190982
 10
-19.956397263
 20
194.259708866
 10
-21.529618075
 20
189.524991219
 10
-21.995550394
 20
184.557549021
 10
-21.330230882
 20
179.612862493
 10
-19.567877547
 20
174.945241510
 10
-16.799129878
 20
170.794746207
 10
-13.166387170
 20
167.374840458
 10
-8.856484795
 20
164.861413230
 10
-4.091085082
 20
163.383732449
 10
0.884722982
 20
163.017796624
 10
5.815028911
 20
163.782426181
 10
10.446262438
 20
165.638295502
 10
14.540234869
 20
168.489955483
 10
17.886389354
 20
172.190742572
 10
20.312630024
 20
176.550321810
 10
21.694173039
 20
181.344475939
 10
21.959964344
 20
186.326637106
 10
21.096334043
 20
191.240568080
 10
19.147699453
 20
195.833540772
 10
16.214280683
 20
199.869334280
 10
12.446946218
 20
203.140383950
 10
8.039453610
 20
205.478456623
 10
3.218484346
 20
206.763303024
  0
LWPOLYLINE
  5
A12
330
A02
100
AcDbEntity
100
AcDbPolyline
  8
DXF_zijplaat
 90
7
 70
1
 43
0
 10
118.000000000
 20
323.500000000
 10
113.660799954
 20
321.379547745
 10
112.667442279
 20
316.653215623
 10
115.785878801
 20
312.965353308
 10
120.611565610
 20
313.159573875
 10
123.423543260
 20
317.086118985
 10
122.053570171
 20
321.717333570
  0
LWPOLYLINE
  5
A13
330
A02
100
AcDbEntity
100
AcDbPolyline
  8
DXF_zijplaat
 90
9
 70
1
 43
0
 10
-10.000000000
 20
276.600000000
 10
-14.535270812
 20
274.794926346
 10
-16.589784698
 20
270.367066261
 10
-15.039738964
 20
265.738423862
 10
-10.732996252
 20
263.440829588
 10
-6.025310442
 20
264.731049164
 10
-3.491748088
 20
268.903342782
 10
-4.518147571
 20
273.675499143
 10
-8.543076568
 20
276.437186817
  0
LWPOLYLINE
  5
A14
330
A02
100
AcDbEntity
100
AcDbPolyline
  8
DXF_zijplaat
 90
9
 70
1
 43
0
 10
-10.000000000
 20
366.600000000
 10
-14.535270812
 20
364.794926346
 10
-16.589784698
 20
360.367066261
 10
-15.039738964
 20
355.738423862
 10
-10.732996252
 20
353.440829588
 10
-6.025310442
 20
354.731049164
 10
-3.491748088
 20
358.903342782
 10
-4.518147571
 20
363.675499143
 10
-8.543076568
 20
366.437186817
  0
LWPOLYLINE
  5
A15
330
A02
100
AcDbEntity
100
AcDbPolyline
  8
DXF_zijplaat
 90
9
 70
1
 43
0
 10
-58.500000000
 20
191.600000000
 10
-63.035270812
 20
189.794926346
 10
-65.089784698
 20
185.367066261
 10
-63.539738964
 20
180.738423862
 10
-59.232996252
 20
178.440829588
 10
-54.525310442
 20
179.731049164
 10
-51.991748088
 20
183.903342782
 10
-53.018147571
 20
188.675499143
 10
-57.043076568
 20
191.437186817
  0
LWPOLYLINE
  5
A16
330
A02
100
AcDbEntity
100
AcDbPolyline
  8
DXF_zijplaat
 90
7
 70
1
 43
0
 10
-182.000000000
 20
65.500000000
 10
-186.339200046
 20
63.379547745
 10
-187.332557721
 20
58.653215623
 10
-184.214121199
 20
54.965353308
 10
-179.388434390
 20
55.159573875
 10
-176.576456740
 20
59.086118985
 10
-177.946429829
 20
63.717333570
  0
LWPOLYLINE
  5
A17
330
A02
100
AcDbEntity
100
AcDbPolyline
  8
DXF_zijplaat
 90
9
 70
1
 43
0
 10
-110.000000000
 20
276.600000000
 10
-114.535270812
 20
274.794926346
 10
-116.589784698
 20
270.367066261
 10
-115.039738964
 20
265.738423862
 10
-110.732996252
 20
263.440829588
 10
-106.025310442
 20
264.731049164
 10
-103.491748088
 20
268.903342782
 10
-104.518147571
 20
273.675499143
 10
-108.543076568
 20
276.437186817
  0
LWPOLYLINE
  5
A18
330
A02
100
AcDbEntity
100
AcDbPolyline
  8
DXF_zijplaat
 90
7
 70
1
 43
0
 10
-30.000000000
 20
367.500000000
 10
-34.339200046
 20
365.379547745
 10
-35.332557721
 20
360.653215623
 10
-32.214121199
 20
356.965353308
 10
-27.388434390
 20
357.159573875
 10
-24.576456740
 20
361.086118985
 10
-25.946429829
 20
365.717333570
  0
LWPOLYLINE
  5
A19
330
A02
100
AcDbEntity
100
AcDbPolyline
  8
DXF_zijplaat
 90
9
 70
1
 43
0
 10
-110.000000000
 20
366.600000000
 10
-114.535270812
 20
364.794926346
 10
-116.589784698
 20
360.367066261
 10
-115.039738964
 20
355.738423862
 10
-110.732996252
 20
353.440829588
 10
-106.025310442
 20
354.731049164
 10
-103.491748088
 20
358.903342782
 10
-104.518147571
 20
363.675499143
 10
-108.543076568
 20
366.437186817
  0
LWPOLYLINE
  5
A1A
330
A02
100
AcDbEntity
100
AcDbPolyline
  8
DXF_zijplaat
 90
7
 70
1
 43
0
 10
-182.000000000
 20
285.500000000
 10
-186.339200046
 20
283.379547745
 10
-187.332557721
 20
278.653215623
 10
-184.214121199
 20
274.965353308
 10
-179.388434390
 20
275.159573875
 10
-176.576456740
 20
279.086118985
 10
-177.946429829
 20
283.717333570
  0
LWPOLYLINE
  5
A1B
330
A02
100
AcDbEntity
100
AcDbPolyline
  8
DXF_zijplaat
 90
9
 70
1
 43
0
 10
-230.000000000
 20
281.600000000
 10
-234.535270812
 20
279.794926346
 10
-236.589784698
 20
275.367066261
 10
-235.039738964
 20
270.738423862
 10
-230.732996252
 20
268.440829588
 10
-226.025310442
 20
269.731049164
 10
-223.491748088
 20
273.903342782
 10
-224.518147571
 20
278.675499143
 10
-228.543076568
 20
281.437186817
  0
LWPOLYLINE
  5
A1C
330
A02
100
AcDbEntity
100
AcDbPolyline
  8
DXF_zijplaat
 90
9
 70
1
 43
0
 10
-230.000000000
 20
381.600000000
 10
-234.535270812
 20
379.794926346
 10
-236.589784698
 20
375.367066261
 10
-235.039738964
 20
370.738423862
 10
-230.732996252
 20
368.440829588
 10
-226.025310442
 20
369.731049164
 10
-223.491748088
 20
373.903342782
 10
-224.518147571
 20
378.675499143
 10
-228.543076568
 20
381.437186817
  0
ENDSEC
  0
SECTION
  2
OBJECTS
  0
DICTIONARY
  5
F000
330
0
100
AcDbDictionary
  3
ACAD_GROUP
350
F001
  0
DICTIONARY
  5
F001
330
F000
100
AcDbDictionary
  0
ENDSEC
  0
EOF